<?xml version="1.0" standalone="no"?><!DOCTYPE svg PUBLIC "-//W3C//DTD SVG 1.1//EN" "http://www.w3.org/Graphics/SVG/1.1/DTD/svg11.dtd"><svg t="1531100949355" class="icon" style="" viewBox="0 0 1024 1024" version="1.1" xmlns="http://www.w3.org/2000/svg" p-id="9529" xmlns:xlink="http://www.w3.org/1999/xlink" width="16" height="16"><defs><style type="text/css"></style></defs><path d="M510.5664 766.5664c-75.9808 0-133.5296-16.1792-182.8864-65.9456l63.2832-63.488A163.84 163.84 0 0 0 512 679.3216c57.7536 0 88.6784-21.7088 88.6784-61.44a55.296 55.296 0 0 0-15.5648-42.1888 73.728 73.728 0 0 0-44.2368-17.6128l-60.416-8.3968a169.7792 169.7792 0 0 1-97.28-40.96A132.3008 132.3008 0 0 1 348.16 409.6c0-89.4976 66.1504-151.9616 174.4896-151.9616 69.0176 0 118.9888 16.7936 161.792 58.368l-61.44 61.44a139.4688 139.4688 0 0 0-102.4-34.6112c-52.0192 0-77.2096 28.8768-77.2096 63.2832a48.5376 48.5376 0 0 0 14.7456 36.0448 87.4496 87.4496 0 0 0 46.2848 20.48l59.1872 8.3968a166.0928 166.0928 0 0 1 95.6416 38.7072A139.4688 139.4688 0 0 1 696.32 614.4c0 97.28-80.896 152.1664-185.7536 152.1664z" p-id="9530" fill="#1296db"></path></svg>