<?xml version="1.0" standalone="no"?><!DOCTYPE svg PUBLIC "-//W3C//DTD SVG 1.1//EN" "http://www.w3.org/Graphics/SVG/1.1/DTD/svg11.dtd"><svg t="1531109209427" class="icon" style="" viewBox="0 0 1024 1024" version="1.1" xmlns="http://www.w3.org/2000/svg" p-id="12464" xmlns:xlink="http://www.w3.org/1999/xlink" width="16" height="16"><defs><style type="text/css"></style></defs><path d="M256 545.6 256 144c0-9.6-6.4-16-16-16s-16 6.4-16 16l0 401.6c-54.4 8-96 54.4-96 110.4s41.6 102.4 96 110.4L224 880c0 9.6 6.4 16 16 16s16-6.4 16-16l0-113.6c54.4-8 96-54.4 96-110.4S310.4 553.6 256 545.6zM240 736c-44.8 0-80-35.2-80-80s35.2-80 80-80 80 35.2 80 80S284.8 736 240 736z" p-id="12465" fill="#1296db"></path><path d="M544 257.6 544 144c0-9.6-6.4-16-16-16s-16 6.4-16 16l0 113.6c-54.4 8-96 54.4-96 110.4s41.6 102.4 96 110.4L512 880c0 9.6 6.4 16 16 16s16-6.4 16-16L544 478.4c54.4-8 96-54.4 96-110.4S598.4 265.6 544 257.6zM528 448c-44.8 0-80-35.2-80-80s35.2-80 80-80 80 35.2 80 80S572.8 448 528 448z" p-id="12466" fill="#1296db"></path><path d="M928 656c0-56-41.6-102.4-96-110.4L832 144c0-9.6-6.4-16-16-16s-16 6.4-16 16l0 401.6c-54.4 8-96 54.4-96 110.4s41.6 102.4 96 110.4L800 880c0 9.6 6.4 16 16 16s16-6.4 16-16l0-113.6C886.4 758.4 928 712 928 656zM816 736c-44.8 0-80-35.2-80-80s35.2-80 80-80 80 35.2 80 80S860.8 736 816 736z" p-id="12467" fill="#1296db"></path></svg>