<?xml version="1.0" standalone="no"?><!DOCTYPE svg PUBLIC "-//W3C//DTD SVG 1.1//EN" "http://www.w3.org/Graphics/SVG/1.1/DTD/svg11.dtd"><svg t="1532489551169" class="icon" style="" viewBox="0 0 1024 1024" version="1.1" xmlns="http://www.w3.org/2000/svg" p-id="2931" xmlns:xlink="http://www.w3.org/1999/xlink" width="16" height="16"><defs><style type="text/css"></style></defs><path d="M461.084444 251.335111l0.398222 3.982222 3.982222 0.113778C467.114667 255.544889 468.821333 255.544889 470.471111 255.544889c49.607111 0 97.735111-23.893333 135.509333-67.299556 1.479111-1.706667 10.638222-13.084444 10.638222-13.084444 37.148444-49.493333 55.580444-113.322667 48.298667-170.382222L664.234667 0l-4.664889 0.796444c-65.024 10.808889-118.727111 42.666667-155.192889 92.216889-17.066667 23.210667-29.411556 49.095111-36.750222 76.288 0 0-3.754667 15.132444-4.664889 21.731556C459.719111 210.773333 458.979556 231.082667 461.084444 251.335111zM918.300444 749.511111c-72.362667-31.857778-118.784-93.013333-127.260444-167.708444-9.500444-82.944 29.070222-165.148444 103.025778-219.989333l3.356444-2.446222-2.275556-3.470222c-22.983111-34.702222-54.044444-61.098667-92.330667-78.449778-39.822222-18.033778-77.824-21.845333-102.684444-21.845333l0 0c-37.376 0-102.513778 37.888-172.714667 37.888-31.516444 0-67.584-6.428444-116.963556-20.878222C385.991111 265.443556 361.870222 261.859556 338.773333 261.859556c-64.967111 0-112.583111 28.501333-141.084444 52.394667C166.741333 340.081778 151.381333 365.624889 150.755556 366.705778L150.698667 366.819556 150.584889 366.990222C116.337778 435.939556 100.124444 510.407111 102.513778 588.231111c1.877333 62.122667 15.473778 126.577778 40.504889 191.431111 42.609778 110.364444 104.334222 185.116444 104.903111 185.799111l0.113778 0.113778 0.056889 0.113778C294.058667 1013.816889 341.048889 1024 372.451556 1024c33.223111 0 55.637333-10.808889 56.547556-11.320889l0.113778 0 0.056889-0.113778c34.531556-19.285333 64.398222-28.273778 93.809778-28.273778 25.486222 0 52.337778 6.599111 86.869333 21.390222l0.113778 0.113778 0.056889 0c28.501333 10.524444 55.352889 15.872 79.815111 15.872 64.910222 0 93.468444-36.636444 97.166222-41.813333 49.265778-41.073778 83.000889-99.953778 102.627556-142.279111 21.162667-45.795556 30.947556-82.545778 31.061333-82.944l0.967111-3.527111L918.300444 749.511111z" p-id="2932" fill="#1296db"></path></svg>