<?xml version="1.0" standalone="no"?><!DOCTYPE svg PUBLIC "-//W3C//DTD SVG 1.1//EN" "http://www.w3.org/Graphics/SVG/1.1/DTD/svg11.dtd"><svg t="1533623519050" class="icon" style="" viewBox="0 0 1024 1024" version="1.1" xmlns="http://www.w3.org/2000/svg" p-id="2330" xmlns:xlink="http://www.w3.org/1999/xlink" width="16" height="16"><defs><style type="text/css"></style></defs><path d="M156.3 485.1h-35.9v-10.2c0-4.5-0.4-9.1-3.2-9.6-4.4-0.8-10.7-1.2-14.5 0-3.2 1-4.2 5.5-4.2 9.2 0 4.6 0.7 8.1 2 10.4s5 5.1 10.9 8.4c10.2 5.6 20.8 10.7 28.6 15.1 9.8 5.5 14.3 9.8 16.8 21.1 1.1 4.7 1.5 10.2 1.2 16.6-0.6 10.7-2.5 16.9-9.6 25.2-4.1 4.7-9.2 8.7-16.2 10-10.6 2-40.4 2.8-51-2.4-7.3-3.6-12.1-8.3-14.4-13.9-2.3-5.6-3.4-13.6-3.4-24v-9h35.9v16.8c0 12.2 18.7 12.3 19.8 1 0.8-8.1-1.2-13.5-3.6-15.9-2.4-2.5-13.8-6.6-23.4-12.5-6-3.7-10.8-6.8-14.2-9.2-13.2-9.3-13.9-20.7-13.9-32.6 0-5.2 1.2-17 6-25.6 2.1-3.9 4.8-5.8 7.7-7.4 3.8-2 8.2-3.2 13.6-3.8 12-1.5 24.7-1 34-0.2 10.8 0.9 22.4 3.8 27.5 14 2.3 4.6 3.4 12.3 3.4 23.3v5.2h0.1z m413.5 0h-35.9v-10.2c0-4.5-0.4-9.1-3.2-9.6-4.4-0.8-10.7-1.2-14.5 0-3.2 1-4.2 5.5-4.2 9.2 0 4.6 0.7 8.1 2 10.4s5 5.1 10.9 8.4c9.7 5.3 19.7 10.1 27.4 14.4 9.9 5.4 14.8 9.2 17.7 20.4 1.3 5 1.9 11 1.5 18-0.5 10.7-2.3 16.9-9.6 25.2-4.1 4.6-9.2 8.7-16.2 10-17.5 3.3-57.4 3.5-65.4-16.3-2.3-5.6-3.4-13.6-3.4-24v-9h35.9v16.8c0 12.2 18.7 12.3 19.8 1 0.8-8.1-1.2-13.5-3.6-15.9-2.4-2.5-13.8-6.6-23.4-12.5-6-3.7-10.8-6.8-14.2-9.2-13.2-9.3-13.9-20.7-13.9-32.6 0-11.3 2.8-27.2 13.7-33 3.8-2 8.2-3.2 13.6-3.8 12-1.5 24.7-1 34-0.2 10.8 0.9 22.4 3.8 27.5 14 2.3 4.6 3.4 12.3 3.4 23.3l0.1 5.2z m-355.1 96.3h-38.4l23.1-132.3H253l27.8 132.3h-37.9l-15.2-102.7-13 102.7z m236.8-132.3v132.3h-32.4v-96.9l-22.8 96.9h-33.9L338 484.7v96.7h-32.4V449.1h59.2l13.3 71.6 14.3-71.6h59.1z m244.8 0v88.4c0 27.7-13.4 44.3-36 44.4l-23.3 0.1c-28.4 0.1-36.3-19.8-36.3-54.6v-78.3h37v99.2c0 11.9 21.6 12.4 21.6-1.7v-97.5h37z m140.3 0v132.3h-36.5l-41-81.6v81.6h-31V449.1h42.1l38 81.3v-81.3h28.4zM959.4 484h-34.2v-12c0-7.6-0.2-5.7-1.1-7.5-1.3-2.9-17.3-6.1-18.2 3.4-0.4 4.3-0.6 11.3-0.6 15.9v63.5c0 14.5 21.3 12.8 21.3-1.1v-23.8h-11.7v-17.3h43.4v38.4c0 10.3-1.7 19.9-8.2 27.1-5 5.6-13.4 9.9-22.9 10.4-8.2 0.5-16.6 0.6-25.1 0.3-15.4-0.6-26.5-9.7-28.8-24.7-0.7-4.5-1.1-11.4-1.1-20.5v-39.3c0-12.6 0.7-28.9 2.2-34.7 1.5-5.7 4.1-11 11-15.7 6.9-4.8 17.6-7.2 28.6-7.2 13 0 27.5 0.3 36.3 9.3 5.3 5.4 9.3 13.2 9.2 20.1l-0.1 15.4z" p-id="2331"></path></svg>